HIERARCHY
ROOT joint_0
{
	OFFSET 0.000000 0.000000 0.000000
	CHANNELS 6 Xposition Yposition Zposition Zrotation Yrotation Xrotation 
	JOINT joint_1
	{
		OFFSET 14.113007 -2.961990 123.953979
		CHANNELS 3 Zrotation Yrotation Xrotation
		JOINT joint_2
		{
			OFFSET 0.764000 -2.434006 113.871948
			CHANNELS 3 Zrotation Yrotation Xrotation
			JOINT joint_3
			{
				OFFSET 0.186996 -2.169998 113.753052
				CHANNELS 3 Zrotation Yrotation Xrotation
				JOINT joint_4
				{
					OFFSET 16.096001 -2.720001 160.853027
					CHANNELS 3 Zrotation Yrotation Xrotation
					JOINT joint_5
					{
						OFFSET 34.392006 -0.188995 92.567017
						CHANNELS 3 Zrotation Yrotation Xrotation
						End Site
						{
							OFFSET 0.000000 0.000000 0.000000
						}
					}
				}
				JOINT joint_6
				{
					OFFSET 9.183998 -36.684006 89.597046
					CHANNELS 3 Zrotation Yrotation Xrotation
					JOINT joint_7
					{
						OFFSET 0.486000 -164.365997 -28.984009
						CHANNELS 3 Zrotation Yrotation Xrotation
						JOINT joint_8
						{
							OFFSET 38.899002 -34.967010 -291.651978
							CHANNELS 3 Zrotation Yrotation Xrotation
							JOINT joint_9
							{
								OFFSET 41.714005 -45.890991 -258.857056
								CHANNELS 3 Zrotation Yrotation Xrotation
								End Site
								{
									OFFSET 0.000000 0.000000 0.000000
								}
							}
						}
					}
				}
				JOINT joint_10
				{
					OFFSET 8.867004 33.650002 90.817993
					CHANNELS 3 Zrotation Yrotation Xrotation
					JOINT joint_11
					{
						OFFSET 0.018997 164.299999 -29.368042
						CHANNELS 3 Zrotation Yrotation Xrotation
						JOINT joint_12
						{
							OFFSET 29.440994 30.887997 -293.216919
							CHANNELS 3 Zrotation Yrotation Xrotation
							JOINT joint_13
							{
								OFFSET 46.174011 54.490005 -256.422058
								CHANNELS 3 Zrotation Yrotation Xrotation
								End Site
								{
									OFFSET 0.000000 0.000000 0.000000
								}
							}
						}
					}
				}
			}
		}
	}
	JOINT joint_14
	{
		OFFSET -2.264000 -89.466995 -116.150024
		CHANNELS 3 Zrotation Yrotation Xrotation
		JOINT joint_15
		{
			OFFSET -16.400993 -17.452988 -493.781982
			CHANNELS 3 Zrotation Yrotation Xrotation
			JOINT joint_16
			{
				OFFSET -50.497004 -13.404022 -424.754013
				CHANNELS 3 Zrotation Yrotation Xrotation
				JOINT joint_17
				{
					OFFSET 198.546007 -19.341003 -89.309000
					CHANNELS 3 Zrotation Yrotation Xrotation
					End Site
					{
						OFFSET 0.000000 0.000000 0.000000
					}
				}
			}
		}
	}
	JOINT joint_18
	{
		OFFSET -0.867996 96.016006 -110.817993
		CHANNELS 3 Zrotation Yrotation Xrotation
		JOINT joint_19
		{
			OFFSET -10.130997 24.658998 -493.645020
			CHANNELS 3 Zrotation Yrotation Xrotation
			JOINT joint_20
			{
				OFFSET -48.871004 19.434999 -424.714005
				CHANNELS 3 Zrotation Yrotation Xrotation
				JOINT joint_21
				{
					OFFSET 195.579996 24.926001 -94.327003
					CHANNELS 3 Zrotation Yrotation Xrotation
					End Site
					{
						OFFSET 0.000000 0.000000 0.000000
					}
				}
			}
		}
	}
}
MOTION
Frames: 18
Frame Time: 0.016667
247.042010 -199.722000 1109.458010 -3.479915 0.052389 0.285824 -0.760188 4.196783 2.275116 -1.187878 -0.545215 -0.465152 -1.180743 0.828297 0.302387 0.409512 2.290410 -1.086137 0.000000 0.000000 0.000000 3.921847 -1.194496 -2.384799 0.180113 -0.532781 -3.596053 2.005434 -7.913020 3.503977 0.000000 0.000000 0.000000 -3.211740 -5.405183 -1.036069 0.191449 -4.779946 3.116380 0.437951 -1.511740 4.067699 0.000000 0.000000 0.000000 5.786663 -23.371641 -1.885160 5.141879 27.428681 4.683435 8.455446 -4.668840 3.030499 0.000000 0.000000 0.000000 -1.354766 -4.796507 3.116570 0.609390 28.203155 -4.099620 -2.709638 -15.654501 0.813002 0.000000 0.000000 0.000000 
250.787000 -202.828990 1103.536010 -3.064747 -0.566785 0.156334 -0.689973 4.872892 2.664077 -1.223206 -0.698243 -0.492567 -1.219201 0.960519 0.343956 0.276560 2.759579 -0.729616 0.000000 0.000000 0.000000 4.048279 -1.271975 -1.973607 0.082887 -0.574261 -3.815970 1.754598 -7.187758 2.817422 0.000000 0.000000 0.000000 -2.753552 -5.536106 -1.218148 0.135838 -5.002345 1.800107 0.662687 -1.645611 5.355182 0.000000 0.000000 0.000000 5.469925 -24.379623 -2.044775 4.784451 31.206173 5.752744 8.900907 -4.978502 3.130040 0.000000 0.000000 0.000000 -1.633984 -5.503395 3.497333 0.577489 31.577351 -4.082988 -3.048631 -16.624264 0.816279 0.000000 0.000000 0.000000 
255.571000 -205.265000 1098.990970 -2.526353 -1.204174 0.315258 -0.662545 5.401566 2.917227 -1.250214 -0.829879 -0.601785 -1.246644 1.098292 0.426174 0.147779 3.040771 -0.386471 0.000000 0.000000 0.000000 3.952760 -1.321102 -1.664930 0.006098 -0.627747 -3.609529 1.326234 -6.041038 1.463410 0.000000 0.000000 0.000000 -2.611292 -5.329264 -1.209889 -0.070915 -4.854993 0.481531 0.548260 -2.125438 5.304314 0.000000 0.000000 0.000000 5.262731 -24.620678 -2.445915 4.487691 33.722552 6.421592 9.182331 -5.466428 3.161228 0.000000 0.000000 0.000000 -1.849319 -5.916435 3.455868 0.532543 34.355543 -3.994416 -3.278321 -17.155176 0.813133 0.000000 0.000000 0.000000 
260.746000 -207.209000 1095.558960 -1.980842 -1.844593 0.612186 -0.652124 5.822197 3.105003 -1.260237 -0.935248 -0.741004 -1.254783 1.233463 0.528784 0.031407 3.205192 -0.078045 0.000000 0.000000 0.000000 3.776579 -1.365701 -1.369042 -0.072129 -0.689446 -3.217115 0.780120 -4.578897 -0.284002 0.000000 0.000000 0.000000 -2.608940 -4.932710 -1.100608 -0.356436 -4.507518 -0.781820 0.226242 -2.767160 4.354178 0.000000 0.000000 0.000000 5.121425 -24.515363 -2.959233 4.228091 35.735343 6.891731 9.404923 -6.142177 3.158823 0.000000 0.000000 0.000000 -2.023696 -6.170704 3.187209 0.485631 36.755871 -3.854080 -3.426019 -17.320765 0.800635 0.000000 0.000000 0.000000 
265.560000 -209.091000 1092.995970 -1.652640 -2.424313 0.780593 -0.630235 6.048601 3.404481 -1.230430 -0.993086 -0.862676 -1.222424 1.308498 0.624128 -0.032314 3.309464 0.089862 0.000000 0.000000 0.000000 3.749600 -1.337090 -1.127737 -0.157914 -0.649892 -2.854846 0.275759 -3.144749 -1.812120 0.000000 0.000000 0.000000 -2.528317 -4.523097 -1.051197 -0.611098 -4.157364 -1.672793 -0.146560 -3.413866 3.116734 0.000000 0.000000 0.000000 5.043023 -24.336810 -3.159160 4.031563 37.359413 7.088981 9.571575 -6.670733 3.152960 0.000000 0.000000 0.000000 -2.161501 -6.284810 3.101443 0.438806 38.716273 -3.798903 -3.584413 -17.240120 0.751887 0.000000 0.000000 0.000000 
269.754000 -211.037000 1091.243040 -1.747765 -2.884181 0.675699 -0.560994 5.973306 3.960019 -1.124655 -0.966603 -0.951504 -1.114454 1.279895 0.706899 -0.002664 3.354157 0.010672 0.000000 0.000000 0.000000 4.041278 -1.188197 -1.021009 -0.252442 -0.431895 -2.512558 -0.148330 -1.785473 -2.930304 0.000000 0.000000 0.000000 -2.238041 -4.146237 -1.108325 -0.811024 -3.867620 -2.016053 -0.542764 -3.984461 1.635079 0.000000 0.000000 0.000000 5.055583 -24.254847 -2.752079 3.939296 38.661105 6.888825 9.681586 -6.963005 3.150002 0.000000 0.000000 0.000000 -2.220505 -6.253151 3.423479 0.436726 40.169367 -3.912105 -3.782452 -16.994532 0.660834 0.000000 0.000000 0.000000 
273.586000 -212.923000 1090.358030 -2.063976 -3.265670 0.459771 -0.479880 5.681038 4.615558 -0.981785 -0.870312 -1.015478 -0.969000 1.181714 0.776592 0.082047 3.337128 -0.213755 0.000000 0.000000 0.000000 4.478644 -0.963384 -0.986554 -0.351629 -0.111404 -2.163928 -0.532497 -0.439887 -3.816859 0.000000 0.000000 0.000000 -1.863417 -3.756719 -1.188518 -0.986243 -3.574671 -2.030542 -0.980670 -4.567254 -0.121637 0.000000 0.000000 0.000000 5.128555 -24.136280 -2.033796 3.910884 39.609045 6.427622 9.720973 -7.175790 3.130935 0.000000 0.000000 0.000000 -2.240348 -6.108636 3.931154 0.444385 41.218132 -4.131136 -4.028768 -16.575244 0.520734 0.000000 0.000000 0.000000 
277.071990 -214.799000 1090.270020 -2.206114 -3.648657 0.324023 -0.456588 5.376149 5.105834 -0.888130 -0.780472 -1.059681 -0.872466 1.085725 0.821166 0.142435 3.323192 -0.373638 0.000000 0.000000 0.000000 4.765084 -0.730344 -0.897358 -0.447076 0.189192 -1.948599 -0.837159 0.722615 -4.411504 0.000000 0.000000 0.000000 -1.577961 -3.383669 -1.218401 -1.136421 -3.276550 -2.047056 -1.381489 -5.245644 -1.634289 0.000000 0.000000 0.000000 5.170276 -23.802543 -1.463790 3.851087 40.156237 6.011040 9.674358 -7.324447 3.089781 0.000000 0.000000 0.000000 -2.354565 -5.932050 4.365113 0.339672 42.046571 -4.372086 -4.399969 -15.957799 0.297984 0.000000 0.000000 0.000000 
280.177000 -216.876010 1091.000000 -1.977181 -4.067691 0.355504 -0.530345 5.099388 5.269684 -0.882783 -0.729052 -1.078036 -0.863682 1.024465 0.834528 0.144756 3.341419 -0.380806 0.000000 0.000000 0.000000 4.766095 -0.505609 -0.669390 -0.540584 0.429508 -1.952739 -1.043402 1.658608 -4.646654 0.000000 0.000000 0.000000 -1.464084 -3.034588 -1.143570 -1.277743 -2.967697 -2.151648 -1.755048 -6.245447 -2.674180 0.000000 0.000000 0.000000 5.137199 -23.158050 -1.218720 3.711329 40.252425 5.726321 9.520767 -7.431845 3.017669 0.000000 0.000000 0.000000 -2.667273 -5.781705 4.626185 0.025857 42.754747 -4.609287 -5.004222 -15.096977 -0.057125 0.000000 0.000000 0.000000 
282.935000 -218.942000 1092.527950 -1.576899 -4.486795 0.461424 -0.654275 4.803342 5.256378 -0.923810 -0.686515 -1.077993 -0.901152 0.971043 0.828554 0.120922 3.365054 -0.319524 0.000000 0.000000 0.000000 4.614412 -0.271401 -0.414527 -0.626464 0.650760 -2.062076 -1.170455 2.403758 -4.603354 0.000000 0.000000 0.000000 -1.440258 -2.703046 -1.021533 -1.402950 -2.655346 -2.262445 -2.097210 -7.338296 -3.463476 0.000000 0.000000 0.000000 5.074323 -22.305182 -1.117716 3.545288 39.954065 5.486560 9.289236 -7.485521 2.926086 0.000000 0.000000 0.000000 -3.080373 -5.608963 4.811212 -0.401970 43.244207 -4.874245 -5.741702 -14.055637 -0.494829 0.000000 0.000000 0.000000 
285.461000 -220.424000 1094.723020 -1.206188 -4.872279 0.559641 -0.772857 4.550548 5.258365 -0.973160 -0.648806 -1.083596 -0.947513 0.922289 0.828571 0.094125 3.380492 -0.249854 0.000000 0.000000 0.000000 4.426530 -0.044881 -0.307111 -0.685049 0.854156 -2.119285 -1.234532 2.897903 -4.451471 0.000000 0.000000 0.000000 -1.425079 -2.392496 -0.946619 -1.489365 -2.358637 -2.468361 -2.320414 -7.915697 -4.158282 0.000000 0.000000 0.000000 5.028367 -21.368396 -1.084173 3.412463 39.371058 5.334096 9.044106 -7.447048 2.842037 0.000000 0.000000 0.000000 -3.424792 -5.342006 4.960051 -0.777905 43.405851 -5.166768 -6.354469 -12.962934 -0.890745 0.000000 0.000000 0.000000 
287.850010 -220.942000 1097.735960 -0.930331 -5.217695 0.620938 -0.872459 4.386078 5.378151 -1.021838 -0.623751 -1.114631 -0.993727 0.884949 0.850094 0.070194 3.374866 -0.186716 0.000000 0.000000 0.000000 4.226378 0.162850 -0.450226 -0.705794 1.031579 -2.064132 -1.233115 3.094899 -4.228382 0.000000 0.000000 0.000000 -1.398079 -2.104922 -0.986240 -1.522556 -2.085088 -2.833847 -2.370005 -7.600873 -4.836381 0.000000 0.000000 0.000000 5.019667 -20.352582 -1.122868 3.337703 38.485132 5.321963 8.809057 -7.282768 2.778226 0.000000 0.000000 0.000000 -3.627670 -4.928655 5.068939 -1.033907 43.158413 -5.472114 -6.706346 -11.829718 -1.188338 0.000000 0.000000 0.000000 
290.006990 -220.875000 1101.416990 -0.676003 -5.531084 0.680065 -0.972722 4.269966 5.513165 -1.081633 -0.613253 -1.153681 -1.051224 0.860585 0.878591 0.043040 3.364976 -0.114786 0.000000 0.000000 0.000000 3.999279 0.361017 -0.740828 -0.700317 1.190974 -1.958434 -1.169103 3.042235 -3.895626 0.000000 0.000000 0.000000 -1.376385 -1.837073 -1.087876 -1.515378 -1.827392 -3.281923 -2.304152 -6.766349 -5.420769 0.000000 0.000000 0.000000 5.022642 -19.243733 -1.232162 3.293478 37.302156 5.390872 8.556379 -7.013153 2.721180 0.000000 0.000000 0.000000 -3.763346 -4.420605 5.138914 -1.237535 42.595121 -5.799937 -6.907775 -10.644239 -1.434332 0.000000 0.000000 0.000000 
291.763000 -220.779010 1105.182010 -0.441121 -5.795836 0.750746 -1.069073 4.128935 5.563449 -1.141973 -0.595700 -1.173847 -1.109872 0.831880 0.891679 0.017546 3.387924 -0.047344 0.000000 0.000000 0.000000 3.799520 0.566042 -1.035839 -0.682844 1.359849 -1.833798 -1.066019 2.815203 -3.510267 0.000000 0.000000 0.000000 -1.338024 -1.578411 -1.147021 -1.493155 -1.578750 -3.710791 -2.209969 -5.938035 -5.831283 0.000000 0.000000 0.000000 5.020352 -18.145411 -1.329265 3.262326 35.976091 5.416185 8.276625 -6.685510 2.659901 0.000000 0.000000 0.000000 -3.878739 -3.902545 5.219720 -1.422428 41.876902 -6.181926 -7.059112 -9.508092 -1.654955 0.000000 0.000000 0.000000 
293.066990 -220.869000 1108.968990 -0.213346 -6.002993 0.848440 -1.165262 3.938413 5.474844 -1.206003 -0.567287 -1.165672 -1.173064 0.797184 0.878230 -0.004802 3.470190 0.011840 0.000000 0.000000 0.000000 3.657064 0.797944 -1.295697 -0.652179 1.562925 -1.673476 -0.917970 2.376178 -3.076239 0.000000 0.000000 0.000000 -1.281273 -1.316077 -1.094591 -1.463944 -1.327046 -4.132442 -2.102198 -5.228375 -6.018569 0.000000 0.000000 0.000000 4.997395 -17.072570 -1.395812 3.230475 34.512395 5.350719 7.946316 -6.277647 2.586678 0.000000 0.000000 0.000000 -3.983352 -3.379450 5.338706 -1.597462 40.990086 -6.673129 -7.175416 -8.428719 -1.855827 0.000000 0.000000 0.000000 
293.968990 -220.929990 1112.840940 -0.001923 -6.164159 0.958321 -1.256726 3.730492 5.304815 -1.271082 -0.538503 -1.140704 -1.237921 0.762060 0.848430 -0.025335 3.587670 0.066438 0.000000 0.000000 0.000000 3.543812 1.036384 -1.551202 -0.610192 1.775322 -1.503219 -0.730348 1.761256 -2.590132 0.000000 0.000000 0.000000 -1.206952 -1.062582 -0.995683 -1.422047 -1.084391 -4.537403 -1.967757 -4.530599 -6.030358 0.000000 0.000000 0.000000 4.967382 -16.003366 -1.452430 3.210154 32.895854 5.236793 7.592210 -5.792714 2.511653 0.000000 0.000000 0.000000 -4.063538 -2.841485 5.468889 -1.751399 39.942957 -7.214848 -7.235815 -7.385225 -2.030659 0.000000 0.000000 0.000000 
294.452000 -220.867000 1116.401980 0.162284 -6.287262 1.047859 -1.327320 3.507159 5.127176 -1.319296 -0.506744 -1.111870 -1.286417 0.721402 0.817961 -0.038502 3.699003 0.101831 0.000000 0.000000 0.000000 3.434396 1.238740 -1.770476 -0.575248 1.953092 -1.413610 -0.543807 1.157428 -2.099045 0.000000 0.000000 0.000000 -1.088929 -0.841061 -0.921013 -1.384509 -0.880907 -4.819983 -1.859798 -4.050251 -5.939551 0.000000 0.000000 0.000000 4.961731 -14.996899 -1.478657 3.225430 31.261861 5.088814 7.281071 -5.333579 2.449995 0.000000 0.000000 0.000000 -4.136336 -2.361025 5.576515 -1.892368 38.936253 -7.669603 -7.295500 -6.452844 -2.189918 0.000000 0.000000 0.000000 
294.522000 -220.667010 1119.561040 0.244851 -6.365291 1.106381 -1.366678 3.240045 4.962105 -1.338749 -0.464998 -1.079529 -1.306867 0.667743 0.786754 -0.042112 3.802839 0.112558 0.000000 0.000000 0.000000 3.314975 1.396893 -1.930165 -0.555757 2.087099 -1.461327 -0.362974 0.608857 -1.582503 0.000000 0.000000 0.000000 -0.876156 -0.651000 -0.888665 -1.365026 -0.727564 -4.947752 -1.806885 -3.933713 -5.729300 0.000000 0.000000 0.000000 5.006339 -14.065335 -1.453500 3.298975 29.624932 4.888148 7.037423 -4.951888 2.406974 0.000000 0.000000 0.000000 -4.205065 -1.959432 5.653665 -2.022078 38.021301 -7.997303 -7.377052 -5.660167 -2.339073 0.000000 0.000000 0.000000 
